<svg width="600" height="400" xmlns="http://www.w3.org/2000/svg">
  <defs>
    <linearGradient id="skyGradient" x1="0%" y1="0%" x2="0%" y2="100%">
      <stop offset="0%" style="stop-color:#87CEEB;stop-opacity:1" />
      <stop offset="70%" style="stop-color:#FFE4B5;stop-opacity:1" />
      <stop offset="100%" style="stop-color:#FF6347;stop-opacity:1" />
    </linearGradient>
    <linearGradient id="sunGradient" x1="0%" y1="0%" x2="0%" y2="100%">
      <stop offset="0%" style="stop-color:#FFD700;stop-opacity:1" />
      <stop offset="100%" style="stop-color:#FF8C00;stop-opacity:1" />
    </linearGradient>
  </defs>
  
  <!-- 天空背景 -->
  <rect width="600" height="400" fill="url(#skyGradient)"/>
  
  <!-- 太阳 -->
  <circle cx="150" cy="120" r="60" fill="url(#sunGradient)"/>
  
  <!-- 山脉 -->
  <polygon points="0,300 100,200 200,250 300,180 400,220 500,160 600,200 600,400 0,400" fill="#8B4513" opacity="0.8"/>
  <polygon points="50,320 150,240 250,280 350,200 450,240 550,180 600,220 600,400 0,400" fill="#A0522D" opacity="0.7"/>
  
  <!-- 水面 -->
  <rect x="0" y="350" width="600" height="50" fill="#4682B4" opacity="0.6"/>
  
  <!-- 云朵 -->
  <ellipse cx="400" cy="80" rx="30" ry="15" fill="white" opacity="0.8"/>
  <ellipse cx="420" cy="85" rx="25" ry="12" fill="white" opacity="0.8"/>
  <ellipse cx="380" cy="85" rx="20" ry="10" fill="white" opacity="0.8"/>
  
  <ellipse cx="500" cy="60" rx="25" ry="12" fill="white" opacity="0.7"/>
  <ellipse cx="515" cy="65" rx="20" ry="10" fill="white" opacity="0.7"/>
</svg>
